<?xml version="1.0" standalone="no"?><!DOCTYPE svg PUBLIC "-//W3C//DTD SVG 1.1//EN" "http://www.w3.org/Graphics/SVG/1.1/DTD/svg11.dtd"><svg t="1764081576455" class="icon" viewBox="0 0 1024 1024" version="1.1" xmlns="http://www.w3.org/2000/svg" p-id="1946" xmlns:xlink="http://www.w3.org/1999/xlink" width="200" height="200"><path d="M718.238971 117.59758l-256.004786 443.396003a81.92 81.92 0 0 1-29.991283-111.898913l174.068193-301.505806a81.92 81.92 0 0 1 111.927876-29.991284z" fill="#FFFFFF" p-id="1947"></path><path d="M728.028497 99.611499l-3.576943-1.955009a102.5024 102.5024 0 0 0-135.851391 39.69392l-174.068193 301.505806a102.4 102.4 0 0 0 37.463761 139.877262 20.48 20.48 0 0 0 27.963868-7.48696l256.019267-443.410484a20.48 20.48 0 0 0-7.950369-28.224535z m-39.50566 28.499685l-232.037826 401.877407-0.173779-0.173779a61.46048 61.46048 0 0 1-6.328436-70.481688l174.068194-301.505806a61.48096 61.48096 0 0 1 61.155572-30.222989l3.316275 0.506855z" fill="#000000" p-id="1948"></path><path d="M914.898377 318.977971l-443.410483 256.019268a81.92 81.92 0 0 0 111.898912 29.96232l301.505806-174.068193a81.92 81.92 0 0 0 30.005765-111.913395z" fill="#FFFFFF" p-id="1949"></path><path d="M932.869977 309.173964l1.955009 3.605905a102.5024 102.5024 0 0 1-39.679438 135.83691l-301.505806 174.068194a102.4 102.4 0 0 1-139.891743-37.478244 20.48 20.48 0 0 1 7.486959-27.963867l443.396003-256.004786a20.48 20.48 0 0 1 28.224535 7.95037z m-28.485203 39.520142l-401.891889 232.023344 0.188261 0.18826a61.46048 61.46048 0 0 0 70.467207 6.313954l301.505806-174.068193a61.48096 61.48096 0 0 0 30.222988-61.155573l-0.492373-3.301792z" fill="#000000" p-id="1950"></path><path d="M364.16515 593.5481l-163.844222 0 0-40.953814L364.16515 552.594286z" fill="#000000" p-id="1951"></path><path d="M118.717412 568.8281m0-81.92a81.92 81.92 0 1 0 0 163.84 81.92 81.92 0 1 0 0-163.84Z" fill="#FFFFFF" p-id="1952"></path><path d="M221.101948 568.8281a102.4 102.4 0 1 0-204.769073 0 102.4 102.4 0 0 0 204.769073 0z m-40.953815 0a61.44 61.44 0 1 1-122.890406 0 61.44 61.44 0 0 1 122.890406 0z" fill="#000000" p-id="1953"></path><path d="M423.626381 653.009332l0.014482 163.858703 40.953814 0 0-163.844222z" fill="#000000" p-id="1954"></path><path d="M448.358807 898.4707m81.92 0a81.92 81.92 0 1 1-163.84 0 81.92 81.92 0 1 1 163.84 0Z" fill="#FFFFFF" p-id="1955"></path><path d="M448.360863 796.087015a102.4 102.4 0 1 1 0 204.769073 102.4 102.4 0 0 1 0-204.769073z m0 40.953814a61.44 61.44 0 1 0 0 122.890407 61.44 61.44 0 0 0 0-122.890407z" fill="#000000" p-id="1956"></path><path d="M436.81907 583.802019m-65.166961-65.166961a92.16 92.16 0 1 0 130.333922 130.333922 92.16 92.16 0 1 0-130.333922-130.333922Z" fill="#97C2FD" p-id="1957" data-spm-anchor-id="a313x.search_index.0.i2.5ded3a81qm8a9L" class="selected"></path><path d="M516.467578 504.153511a112.64 112.64 0 1 0-159.297015 159.297016 112.64 112.64 0 0 0 159.297015-159.297016z m-28.963094 28.963094a71.68 71.68 0 1 1-101.370828 101.370828 71.68 71.68 0 0 1 101.370828-101.370828zM617.389478 607.160754l61.445204 0.014482 0-40.982778-61.430722 0.028963-0.014482 40.939333z m102.4135 0l61.430722 0 0-40.953814-61.430722 0 0 40.953814z m102.384536 0L883.647199 607.160754l0.014482-40.968296-61.459685 0 0 40.953815z m102.4135 0l61.430722 0 0-40.953814-61.430722 0 0 40.953814zM634.868705 716.800546l61.445204 0.014481 0.014481-40.968296-61.459685 0 0 40.953815z m102.4135 0l61.430722 0 0-40.953815-61.430722 0 0 40.953815z m102.399018 0.014481l61.430722-0.028963 0.014481-40.939333-61.459685 0 0.014482 40.968296z m102.399018-0.014481l61.430722 0 0-40.953815-61.430722 0 0 40.953815zM102.396708 266.236178l61.445204 0.014481-0.014482-40.968296-61.41624 0.014482-0.014482 40.939333z m102.399018 0.014481l61.445204-0.014481 0-40.953815-61.445204 0.014482 0 40.953814z m102.399018-0.014481l61.445204 0.014481 0-40.953814-61.445204-0.014482 0 40.953815z m102.399018 0.014481l61.445204-0.014481 0-40.953815-61.430722 0-0.014482 40.968296z" fill="#000000" p-id="1958"></path></svg>